<?xml version="1.0" encoding="utf-8"?>
<!-- Generator: Adobe Illustrator 26.3.1, SVG Export Plug-In . SVG Version: 6.00 Build 0)  -->
<svg version="1.1" id="Layer_5" xmlns="http://www.w3.org/2000/svg" xmlns:xlink="http://www.w3.org/1999/xlink" x="0px" y="0px"
	 viewBox="0 0 161 138" style="enable-background:new 0 0 161 138;" xml:space="preserve">
<style type="text/css">
	.st0{fill:#FFFFFF;}
</style>
<path class="st0" d="M78.4,91.6c-3,13.8-17.9,20.6-31.2,18.7c-3.8-0.6-8.8-1.8-10.4-5.8c-4.5-11.1-6.1-60.6,0.3-70.2
	c2.4-3.1,7-4.3,10.6-3.8c10.9,1.6,17.4,11.6,21.8,20.2c5.7,11.4,8.8,23.6,13.3,35.4c2.1,5.2,4.3,11.6,7.8,15.6
	c2,2.4,5.1,2.4,7.3,0.4c2.8-2.8,4.3-6.8,5.8-10.7c2-5.8,3.4-11.8,4.9-17.8c3.2-12.5,9.1-35,19.4-43c0.1-0.1,0.3-0.1,0.4,0.1
	c0.1,0.1,0.1,0.3,0,0.4c-8.1,9-11.7,31.5-14.1,43.7c-1.8,10-4,25.3-11.5,32.6c-3.9,3.8-11.1,4.7-15.4,0.9c-3.7-3-5.2-7.6-6.3-11.9
	c-2.2-9.3-2.4-18.9-5.3-28c-1.8-6-4.5-11.7-8.1-16.8C63,45,52.6,35.3,44.3,38.2c-0.5,0.2-0.8,0.5-1.2,0.8c0.1-0.1,0.3-0.4,0.2-0.1
	c-0.2,0.6-0.4,1.3-0.6,2.1c-1,5.1-1.2,10.4-1.5,15.7c-0.6,12.2-0.9,24.8,0.1,37c0.3,2.8,0.6,6.3,1.5,8.7c0,0-0.1-0.1-0.1-0.1
	c0.1,0.1,0.1,0.2,0.3,0.2c1.5,1,3.4,1.6,5.3,2c6.9,1.6,14.9,1,21.1-2.8c3.9-2.4,6.8-6,8.8-10.2C78.2,91.3,78.4,91.5,78.4,91.6
	L78.4,91.6L78.4,91.6z"/>
</svg>
