<?xml version="1.0" encoding="UTF-8"?><svg id="Layer_1" xmlns="http://www.w3.org/2000/svg" viewBox="0 0 256 256"><defs><style>.cls-1{fill:#fff;}</style></defs><path class="cls-1" d="m161.92,116.46c20.54,4.32,44.31,22.7,45.39,56.2,1.23,38.27-16.59,54.4-46.68,62.87-2.06.58-4.11-.98-4.11-3.13v-52.18c0-6.13-2.13-11.75-5.68-16.19-.91-1.43-2.24-2.74-3.92-3.95-2.82-2.29-6.13-4.01-9.75-4.95-.08-.02-.16-.05-.24-.08-13.92-4.01-19.41.76-36.62-2.93-15.13-3.24-24.86-10.81-32.91-18.04-27.46-24.65-24.14-74.86,5.61-96.51,25.15-19.01,62.8-22.49,95.08-14.75,3.63.87,3.21,6.15-.51,6.4l-35.64,2.39c-8.26.55-11.37,11.09-4.73,16.04l9.19,6.86c2.59,1.94,1.06,6.08-2.17,5.83-1.26-.1-2.48-.13-3.66-.09-21.42,0-36.78,25.97-16.31,48.15,11.98,10.22,27.12,3.73,47.65,8.06Z"/><path class="cls-1" d="m100.27,176.08c-7.98-12.54-24.49-16.67-37.48-9.17-12.99,7.5-17.66,23.87-10.8,37.04.19.36.38.71.59,1.06,2.41,4.17,5.73,7.48,9.56,9.83l.16.1.77.44.25.14,36.45,21.05c2.16,1.25,4.86-.31,4.86-2.81v-42.1s0-.28,0-.28v-.89s0-.18,0-.18c-.12-4.5-1.33-9.03-3.73-13.19-.2-.35-.41-.7-.63-1.04Zm-12.41,17.91c-6.24,13.79-24.8,8.81-23.31-6.25.03-.35.13-.7.27-1.01,6.24-13.79,24.8-8.81,23.31,6.25-.03.35-.13.7-.27,1.01Z"/><path class="cls-1" d="m131.45,42.85l58.41,38.54c2.46,1.63,5.64-.62,4.93-3.48l-5.19-21.04c-.27-1.08.04-2.22.81-3.02l15.02-15.63c2.05-2.13.41-5.66-2.53-5.48l-69.86,4.17c-3.11.19-4.19,4.23-1.59,5.94Z"/></svg>